<?xml version="1.0" standalone="no"?>
<!DOCTYPE svg PUBLIC "-//W3C//DTD SVG 1.1//EN" "http://www.w3.org/Graphics/SVG/1.1/DTD/svg11.dtd">
<svg width="100%" height="100%" viewBox="0 0 134 150" version="1.1" xmlns="http://www.w3.org/2000/svg" xmlns:xlink="http://www.w3.org/1999/xlink" xml:space="preserve" style="fill-rule:evenodd;clip-rule:evenodd;stroke-linejoin:round;stroke-miterlimit:1.41421;">
    <g transform="matrix(1,0,0,1,-533,-525)">
        <g transform="matrix(0.333333,2.46519e-32,2.46519e-32,0.333333,400,400)">
            <g transform="matrix(1,0,0,1,-2.18367,86.4286)">
                <path d="M502.184,638.571C502.184,638.571 502.184,688.571 502.184,688.571C502.184,716.167 479.779,738.571 452.184,738.571C424.588,738.571 402.184,716.167 402.184,688.571L402.184,638.571C402.184,638.571 402.184,638.571 402.184,638.571L402.184,588.571L402.184,488.571C402.184,378.188 491.801,288.571 602.184,288.571C712.567,288.571 802.184,378.188 802.184,488.571C802.184,575.213 746.971,649.061 669.841,676.819C664.349,678.895 658.398,680.031 652.184,680.031C624.588,680.031 602.184,657.627 602.184,630.031C602.184,608.387 615.966,589.937 635.225,582.985C635.282,582.958 635.341,582.934 635.401,582.913C674.285,569.205 702.184,532.121 702.184,488.571C702.184,433.38 657.375,388.571 602.184,388.571C546.992,388.571 502.184,433.379 502.184,488.571L502.184,638.571Z" style="fill:white;"/>
            </g>
        </g>
    </g>
</svg>
