<?xml version="1.0" standalone="no"?>
<!DOCTYPE svg PUBLIC "-//W3C//DTD SVG 1.1//EN" "http://www.w3.org/Graphics/SVG/1.1/DTD/svg11.dtd">
<svg width="100%" height="100%" viewBox="0 0 700 100" version="1.1" xmlns="http://www.w3.org/2000/svg" xmlns:xlink="http://www.w3.org/1999/xlink" xml:space="preserve" style="fill-rule:evenodd;clip-rule:evenodd;stroke-linejoin:round;stroke-miterlimit:1.41421;">
    <g id="Layer1" transform="matrix(0.86856,0,0,0.86856,0.152361,6.57202)">
        <g transform="matrix(1,0,0,1,-904.602,-206.614)">
            <path d="M1155.96,229.272C1155.96,247.752 1155.96,266.152 1155.96,284.632L1157.24,284.632L1157.24,263.352L1175.32,263.352C1197.72,263.352 1197.72,228.632 1175.32,228.632L1156.6,228.632L1155.96,228.632L1155.96,229.272ZM1157.24,262.152L1157.24,229.912L1175.32,229.912C1196.12,229.912 1196.12,262.152 1175.32,262.152L1157.24,262.152Z" style="fill:white;fill-rule:nonzero;stroke-width:3.45px;stroke:white;"/>
        </g>
        <g transform="matrix(1,0,0,1,-884.929,-233.464)">
            <path d="M1141.57,285.002C1146.33,285.002 1151.09,285.03 1155.85,285.001C1156.04,284.998 1156.04,284.998 1156.23,284.992C1156.59,284.976 1156.95,284.952 1157.32,284.911C1158.03,284.83 1158.74,284.693 1159.42,284.491C1160.27,284.244 1161.08,283.897 1161.83,283.449C1162.65,282.962 1163.4,282.356 1164.05,281.659C1165.96,279.605 1166.98,276.838 1167.2,274.068C1167.24,273.624 1167.26,273.179 1167.25,272.734C1167.24,272.141 1167.2,271.548 1167.12,270.96C1167.02,270.139 1166.84,269.327 1166.58,268.538C1166.27,267.553 1165.84,266.603 1165.29,265.726C1164.69,264.768 1163.94,263.9 1163.07,263.181C1162.61,262.803 1162.11,262.467 1161.59,262.177C1160.43,261.529 1159.15,261.123 1157.84,260.922C1157.11,260.811 1156.37,260.767 1155.64,260.762L1141.57,260.762C1141.57,268.842 1141.57,276.922 1141.57,285.002ZM1132.29,315.482L1132.29,251.482C1140.18,251.482 1148.07,251.413 1155.96,251.484C1157.4,251.506 1158.84,251.643 1160.26,251.927C1162.47,252.371 1164.61,253.168 1166.55,254.322C1167.38,254.813 1168.17,255.367 1168.91,255.977C1169.96,256.841 1170.92,257.817 1171.77,258.881C1172.23,259.469 1172.67,260.083 1173.07,260.718C1175.77,265.016 1176.84,270.248 1176.33,275.276C1176.23,276.248 1176.07,277.213 1175.85,278.165C1175.1,281.46 1173.62,284.597 1171.45,287.193C1170.68,288.107 1169.83,288.951 1168.91,289.708C1167.58,290.802 1166.1,291.712 1164.52,292.411C1162.8,293.175 1160.98,293.684 1159.11,293.956C1158.02,294.116 1156.91,294.192 1155.81,294.202L1155.66,294.202L1141.57,294.202L1141.57,315.482C1138.48,315.482 1135.38,315.482 1132.29,315.482Z" style="fill:white;fill-rule:nonzero;stroke-width:3.45px;stroke:white;"/>
        </g>
        <g transform="matrix(1,0,0,1,-884.929,-233.464)">
            <path d="M1225.17,282.866C1229.96,282.866 1234.74,282.892 1239.53,282.865C1239.72,282.862 1239.72,282.862 1239.92,282.856C1240.29,282.841 1240.66,282.818 1241.03,282.779C1241.8,282.697 1242.57,282.554 1243.33,282.338C1244.21,282.083 1245.06,281.725 1245.85,281.257C1246.72,280.746 1247.5,280.105 1248.17,279.358C1248.46,279.041 1248.72,278.706 1248.96,278.356C1250.81,275.68 1251.35,272.197 1250.62,269.051C1250.17,267.123 1249.23,265.306 1247.82,263.899C1247.27,263.34 1246.64,262.851 1245.97,262.441C1244.68,261.653 1243.22,261.172 1241.73,260.94C1240.93,260.816 1240.12,260.767 1239.32,260.762L1225.17,260.762C1225.17,268.13 1225.17,275.498 1225.17,282.866ZM1215.97,315.482L1215.97,251.482L1239.34,251.482C1240.05,251.486 1240.75,251.51 1241.45,251.568C1242.88,251.685 1244.3,251.928 1245.68,252.311C1247.32,252.765 1248.9,253.417 1250.37,254.268C1252.12,255.28 1253.71,256.57 1255.05,258.081C1255.86,258.99 1256.58,259.976 1257.2,261.019C1257.65,261.772 1258.05,262.555 1258.4,263.361C1260.71,268.703 1260.71,274.981 1258.4,280.324C1257.99,281.277 1257.5,282.198 1256.95,283.076C1256.12,284.387 1255.14,285.599 1254.02,286.673C1252.41,288.219 1250.53,289.469 1248.49,290.37C1247.75,290.699 1246.99,290.981 1246.21,291.219C1245.86,291.327 1245.5,291.424 1245.14,291.516L1245.13,291.517L1264.4,315.496L1260.41,315.496L1252.3,315.482L1233.58,292.283L1225.17,292.283L1225.17,315.482C1222.1,315.482 1219.04,315.482 1215.97,315.482Z" style="fill:white;fill-rule:nonzero;stroke-width:3.45px;stroke:white;"/>
        </g>
        <g transform="matrix(1,0,0,1,-884.929,-233.464)">
            <path d="M1300.93,315.482L1300.93,251.562L1339.81,251.562L1339.81,260.762L1310.21,260.762L1310.21,278.842L1339.17,278.842L1339.17,288.122L1310.21,288.122L1310.21,306.282L1339.97,306.282L1339.97,315.482C1326.96,315.482 1313.94,315.482 1300.93,315.482Z" style="fill:white;fill-rule:nonzero;stroke-width:3.45px;stroke:white;"/>
        </g>
        <g transform="matrix(1,0,0,1,-884.929,-233.464)">
            <path d="M1401.97,316.042C1400.67,316.037 1399.37,315.944 1398.08,315.756C1397.07,315.609 1396.07,315.408 1395.08,315.154C1394.39,314.977 1393.71,314.773 1393.04,314.543C1392.51,314.363 1391.99,314.168 1391.47,313.956C1387.86,312.473 1384.52,310.169 1382.18,307.014C1381.78,306.47 1381.4,305.903 1381.07,305.316C1380.61,304.527 1380.23,303.702 1379.91,302.85C1379.61,302.056 1379.38,301.24 1379.21,300.41C1379.11,299.963 1379.04,299.513 1378.99,299.06L1378.97,298.923L1378.96,298.865L1378.33,294.407L1378.38,294.329L1387.54,293.186L1388.18,297.702C1388.19,297.838 1388.21,297.973 1388.23,298.109C1388.31,298.659 1388.45,299.198 1388.65,299.717C1388.75,299.977 1388.87,300.232 1389,300.479C1389.87,302.165 1391.35,303.467 1392.97,304.425C1393.23,304.577 1393.49,304.721 1393.75,304.857C1394.12,305.044 1394.48,305.216 1394.86,305.375C1395.92,305.823 1397.02,306.165 1398.14,306.41C1399.28,306.659 1400.45,306.806 1401.62,306.837C1402.59,306.862 1403.56,306.806 1404.52,306.681C1405.84,306.51 1407.15,306.205 1408.41,305.761C1409.6,305.341 1410.75,304.797 1411.81,304.109C1412.65,303.562 1413.43,302.923 1414.11,302.181C1414.69,301.546 1415.19,300.835 1415.57,300.061C1415.9,299.36 1416.14,298.611 1416.27,297.842C1416.42,296.867 1416.4,295.871 1416.26,294.896C1416.18,294.406 1416.08,293.922 1415.93,293.451C1415.7,292.779 1415.37,292.144 1414.91,291.606C1414.44,291.065 1413.86,290.636 1413.24,290.293C1412.49,289.881 1411.69,289.583 1410.87,289.341C1409.85,289.039 1408.8,288.827 1407.75,288.654C1406.41,288.433 1405.06,288.28 1403.7,288.136C1402.5,288.012 1401.3,287.894 1400.1,287.768C1397.79,287.519 1395.49,287.23 1393.23,286.707C1391.61,286.332 1390.01,285.836 1388.5,285.142C1387.41,284.642 1386.36,284.038 1385.4,283.317C1384.42,282.584 1383.54,281.731 1382.78,280.775C1381.79,279.528 1381.02,278.113 1380.48,276.615C1380.02,275.335 1379.72,274 1379.55,272.652C1379.49,272.239 1379.46,271.825 1379.42,271.411C1379.39,271.025 1379.37,270.641 1379.35,270.254C1379.33,269.384 1379.37,268.512 1379.47,267.647C1379.68,265.914 1380.15,264.215 1380.87,262.625C1381.58,261.071 1382.52,259.63 1383.65,258.351C1384.05,257.904 1384.46,257.476 1384.9,257.069C1388.06,254.113 1392.13,252.267 1396.34,251.399C1397.05,251.254 1397.76,251.136 1398.47,251.044C1399.44,250.919 1400.42,250.843 1401.4,250.817C1402.65,250.784 1403.89,250.83 1405.12,250.957C1406.81,251.129 1408.48,251.452 1410.1,251.938C1413.1,252.835 1415.94,254.297 1418.29,256.377C1418.69,256.729 1419.07,257.097 1419.43,257.482C1419.94,258.016 1420.41,258.582 1420.85,259.176C1421.42,259.948 1421.92,260.767 1422.35,261.623C1422.85,262.631 1423.26,263.69 1423.56,264.777C1423.7,265.304 1423.82,265.837 1423.92,266.373L1424.48,270.835L1415.71,272.59L1415.38,272.353L1414.82,267.909C1414.79,267.773 1414.76,267.638 1414.73,267.503C1414.51,266.676 1414.19,265.879 1413.75,265.148C1413.47,264.696 1413.15,264.264 1412.79,263.875C1412.33,263.373 1411.79,262.932 1411.23,262.545C1410.04,261.725 1408.69,261.146 1407.3,260.748C1406.22,260.436 1405.1,260.234 1403.98,260.128C1403.12,260.046 1402.25,260.021 1401.38,260.053C1400.68,260.078 1399.98,260.142 1399.29,260.244C1398.72,260.326 1398.16,260.433 1397.6,260.566C1396.09,260.927 1394.62,261.477 1393.28,262.268C1392.28,262.855 1391.36,263.579 1390.61,264.454C1390.48,264.602 1390.36,264.756 1390.24,264.91C1390.13,265.051 1390.02,265.192 1389.91,265.339C1389.68,265.665 1389.48,266.01 1389.31,266.369C1388.91,267.207 1388.68,268.118 1388.6,269.041C1388.53,269.849 1388.57,270.666 1388.68,271.469C1388.82,272.54 1389.12,273.616 1389.71,274.531C1389.83,274.715 1389.96,274.891 1390.1,275.058C1390.95,276.058 1392.14,276.684 1393.36,277.126C1393.58,277.205 1393.8,277.278 1394.02,277.347C1395.02,277.661 1396.05,277.882 1397.09,278.061C1398.48,278.302 1399.89,278.463 1401.29,278.612C1402.49,278.736 1403.69,278.851 1404.88,278.974C1405.71,279.061 1406.53,279.152 1407.36,279.257C1407.91,279.328 1408.47,279.405 1409.02,279.491C1409.44,279.556 1409.86,279.626 1410.27,279.702C1413.04,280.209 1415.79,280.994 1418.23,282.425C1418.62,282.655 1419,282.9 1419.37,283.162C1419.81,283.473 1420.24,283.808 1420.64,284.166C1421.38,284.826 1422.06,285.564 1422.65,286.367C1423.31,287.276 1423.87,288.265 1424.3,289.302C1424.85,290.593 1425.21,291.954 1425.43,293.335C1425.66,294.698 1425.75,296.086 1425.67,297.466C1425.6,298.878 1425.35,300.28 1424.93,301.631C1424.51,302.976 1423.92,304.267 1423.19,305.469C1422.47,306.639 1421.62,307.724 1420.67,308.709C1419.06,310.375 1417.16,311.751 1415.11,312.838C1412.2,314.383 1409,315.36 1405.74,315.792C1404.78,315.92 1403.81,315.994 1402.84,316.029C1402.55,316.036 1402.26,316.041 1401.97,316.042Z" style="fill:white;fill-rule:nonzero;stroke-width:3.45px;stroke:white;"/>
        </g>
        <g transform="matrix(1,0,0,1,-884.929,-233.464)">
            <path d="M1487.89,316.042C1486.59,316.037 1485.29,315.944 1484,315.756C1482.99,315.609 1481.99,315.408 1481,315.154C1480.31,314.977 1479.63,314.773 1478.96,314.543C1478.43,314.363 1477.9,314.168 1477.39,313.955C1474.24,312.661 1471.3,310.75 1469.05,308.183C1468.71,307.806 1468.4,307.417 1468.1,307.014C1467.7,306.47 1467.32,305.903 1466.99,305.316C1466.53,304.527 1466.14,303.702 1465.83,302.85C1465.52,302.015 1465.27,301.154 1465.1,300.279C1465.02,299.876 1464.96,299.469 1464.9,299.061L1464.89,298.923L1464.88,298.864L1464.25,294.408L1464.31,294.329L1473.45,293.186L1474.1,297.702C1474.12,297.838 1474.13,297.973 1474.15,298.109C1474.23,298.659 1474.37,299.198 1474.57,299.717C1474.67,299.977 1474.79,300.232 1474.91,300.479C1475.79,302.165 1477.27,303.467 1478.89,304.425C1479.15,304.577 1479.41,304.721 1479.67,304.858C1480.04,305.044 1480.4,305.216 1480.78,305.375C1481.88,305.843 1483.04,306.197 1484.21,306.442C1485.31,306.671 1486.42,306.808 1487.54,306.837C1488.51,306.862 1489.48,306.806 1490.44,306.681C1491.77,306.51 1493.07,306.204 1494.33,305.761C1495.58,305.322 1496.78,304.748 1497.87,304.014C1498.66,303.489 1499.39,302.881 1500.03,302.182C1500.59,301.564 1501.08,300.875 1501.45,300.125C1501.8,299.429 1502.04,298.684 1502.17,297.918C1502.34,296.919 1502.33,295.896 1502.18,294.896C1502.11,294.446 1502.02,294 1501.88,293.565C1501.66,292.851 1501.32,292.175 1500.83,291.606C1500.36,291.064 1499.78,290.636 1499.16,290.293C1498.41,289.881 1497.61,289.582 1496.79,289.341C1495.77,289.039 1494.72,288.827 1493.67,288.654C1492.33,288.433 1490.98,288.28 1489.62,288.136C1488.42,288.012 1487.22,287.894 1486.02,287.768C1483.71,287.519 1481.41,287.23 1479.15,286.707C1477.53,286.332 1475.93,285.836 1474.42,285.142C1473.33,284.642 1472.28,284.038 1471.32,283.317C1470.35,282.584 1469.46,281.732 1468.7,280.775C1467.73,279.562 1466.98,278.189 1466.44,276.736C1465.95,275.419 1465.64,274.043 1465.47,272.652C1465.41,272.239 1465.38,271.825 1465.34,271.411C1465.31,271.025 1465.29,270.64 1465.27,270.253C1465.25,269.383 1465.29,268.511 1465.39,267.646C1465.59,265.981 1466.04,264.347 1466.71,262.811C1467.43,261.186 1468.4,259.68 1469.57,258.35C1469.97,257.904 1470.38,257.476 1470.82,257.069C1473.98,254.113 1478.05,252.266 1482.26,251.399C1482.97,251.254 1483.68,251.136 1484.39,251.044C1485.36,250.919 1486.34,250.843 1487.32,250.817C1488.57,250.784 1489.81,250.83 1491.05,250.957C1492.73,251.129 1494.4,251.452 1496.02,251.938C1498.95,252.816 1501.75,254.235 1504.06,256.247C1504.51,256.637 1504.94,257.049 1505.35,257.481C1505.86,258.016 1506.33,258.582 1506.77,259.176C1507.34,259.948 1507.84,260.768 1508.27,261.624C1508.77,262.633 1509.18,263.691 1509.48,264.779C1509.62,265.306 1509.74,265.838 1509.84,266.374L1510.4,270.835L1501.63,272.59L1501.3,272.352L1500.74,267.91C1500.71,267.773 1500.68,267.638 1500.65,267.503C1500.43,266.7 1500.13,265.923 1499.7,265.209C1499.42,264.734 1499.09,264.281 1498.71,263.873C1498.55,263.701 1498.38,263.537 1498.21,263.379C1497.87,263.077 1497.52,262.799 1497.15,262.545C1495.96,261.725 1494.61,261.146 1493.22,260.748C1492.14,260.436 1491.02,260.234 1489.9,260.128C1488.97,260.039 1488.03,260.017 1487.09,260.061C1486.39,260.095 1485.69,260.166 1484.99,260.276C1484.46,260.359 1483.94,260.464 1483.42,260.591C1483.01,260.693 1482.6,260.808 1482.19,260.939C1481.86,261.047 1481.53,261.165 1481.2,261.294C1479.42,262 1477.72,263.045 1476.47,264.523C1476.36,264.649 1476.26,264.78 1476.16,264.91C1476.03,265.076 1475.9,265.242 1475.78,265.416C1475.57,265.719 1475.39,266.038 1475.23,266.369C1474.86,267.147 1474.63,267.989 1474.54,268.845C1474.47,269.461 1474.47,270.082 1474.52,270.699C1474.54,270.983 1474.57,271.266 1474.61,271.548C1474.76,272.576 1475.04,273.607 1475.6,274.489C1475.75,274.714 1475.9,274.928 1476.08,275.129C1476.92,276.089 1478.09,276.694 1479.28,277.126C1479.5,277.205 1479.71,277.278 1479.93,277.347C1480.94,277.661 1481.97,277.882 1483.01,278.061C1484.4,278.302 1485.81,278.463 1487.21,278.612C1488.41,278.736 1489.61,278.851 1490.8,278.974C1491.63,279.061 1492.45,279.152 1493.28,279.257C1493.83,279.328 1494.39,279.405 1494.94,279.491C1495.36,279.556 1495.78,279.626 1496.19,279.702C1498.95,280.209 1501.71,280.994 1504.15,282.426C1504.54,282.655 1504.92,282.901 1505.29,283.162C1505.73,283.474 1506.15,283.808 1506.56,284.165C1507.27,284.798 1507.92,285.503 1508.49,286.268C1509.19,287.204 1509.77,288.228 1510.22,289.304C1510.74,290.542 1511.1,291.842 1511.33,293.164C1511.55,294.476 1511.65,295.812 1511.61,297.143C1511.55,298.613 1511.32,300.076 1510.89,301.484C1510.5,302.788 1509.95,304.042 1509.26,305.215C1508.52,306.482 1507.61,307.652 1506.59,308.708C1504.98,310.375 1503.08,311.751 1501.03,312.838C1498.12,314.383 1494.92,315.361 1491.66,315.792C1490.7,315.92 1489.73,315.994 1488.76,316.029C1488.47,316.036 1488.18,316.041 1487.89,316.042Z" style="fill:white;fill-rule:nonzero;stroke-width:3.45px;stroke:white;"/>
        </g>
        <g transform="matrix(1,0,0,1,-884.929,-233.464)">
            <path d="M1575.49,316.122C1574.3,316.117 1573.11,316.046 1571.92,315.896C1570.98,315.778 1570.05,315.613 1569.13,315.404C1568.46,315.25 1567.79,315.073 1567.13,314.871C1563.05,313.622 1559.19,311.417 1556.36,308.191C1555.91,307.686 1555.5,307.157 1555.11,306.607C1554.64,305.936 1554.21,305.232 1553.84,304.502C1553.3,303.461 1552.87,302.368 1552.56,301.241C1552.27,300.211 1552.08,299.155 1551.98,298.09C1551.92,297.54 1551.9,296.988 1551.89,296.436L1551.89,296.291L1551.89,251.562L1561.17,251.562C1561.17,266.577 1560.89,281.594 1561.17,296.606C1561.18,296.737 1561.18,296.868 1561.19,296.999C1561.24,297.742 1561.37,298.478 1561.61,299.186C1561.74,299.567 1561.89,299.939 1562.07,300.297C1562.19,300.534 1562.32,300.765 1562.46,300.989C1563.55,302.704 1565.21,303.984 1567.01,304.892C1567.35,305.064 1567.69,305.224 1568.05,305.372C1569.19,305.854 1570.39,306.211 1571.61,306.455C1572.89,306.71 1574.19,306.842 1575.49,306.842C1576.74,306.842 1577.98,306.721 1579.2,306.487C1580.75,306.192 1582.26,305.716 1583.68,305.033C1584.7,304.54 1585.67,303.937 1586.54,303.204C1587.08,302.748 1587.58,302.242 1588.01,301.685C1588.38,301.207 1588.7,300.693 1588.97,300.148C1589.22,299.614 1589.42,299.052 1589.56,298.475C1589.73,297.783 1589.8,297.075 1589.81,296.365L1589.81,296.276L1589.81,251.562L1599.09,251.562C1599.09,266.547 1599.16,281.531 1599.09,296.515C1599.09,296.667 1599.09,296.818 1599.08,296.97C1599.06,297.566 1599.02,298.16 1598.94,298.752C1598.82,299.708 1598.62,300.655 1598.34,301.579C1598.01,302.65 1597.59,303.688 1597.06,304.677C1596.7,305.361 1596.29,306.021 1595.85,306.652C1595.46,307.198 1595.04,307.724 1594.59,308.226C1591.86,311.303 1588.2,313.448 1584.31,314.716C1583.66,314.93 1582.99,315.119 1582.32,315.285C1581.49,315.49 1580.65,315.659 1579.8,315.789C1578.62,315.97 1577.44,316.074 1576.25,316.112C1576,316.118 1575.74,316.121 1575.49,316.122Z" style="fill:white;fill-rule:nonzero;stroke-width:3.45px;stroke:white;"/>
        </g>
        <g transform="matrix(1,0,0,1,-884.929,-233.464)">
            <path d="M1650.05,285.002C1654.81,285.002 1659.57,285.03 1664.33,285.001C1664.52,284.998 1664.52,284.998 1664.71,284.992C1665.07,284.976 1665.43,284.952 1665.8,284.911C1666.56,284.824 1667.32,284.673 1668.05,284.446C1668.89,284.189 1669.69,283.833 1670.43,283.377C1671.24,282.879 1671.98,282.264 1672.62,281.559C1674.47,279.515 1675.46,276.795 1675.68,274.069C1675.72,273.625 1675.74,273.179 1675.73,272.734C1675.72,272.141 1675.68,271.548 1675.61,270.96C1675.5,270.139 1675.32,269.327 1675.06,268.538C1674.42,266.519 1673.28,264.643 1671.65,263.268C1671.16,262.854 1670.63,262.488 1670.07,262.177C1668.91,261.529 1667.63,261.123 1666.32,260.922C1665.59,260.811 1664.85,260.767 1664.12,260.762L1650.05,260.762C1650.05,268.842 1650.05,276.922 1650.05,285.002ZM1640.77,315.482L1640.77,251.482C1648.66,251.482 1656.55,251.413 1664.44,251.484C1665.84,251.505 1667.23,251.633 1668.6,251.899C1670.86,252.337 1673.05,253.143 1675.04,254.322C1675.86,254.813 1676.65,255.367 1677.39,255.978C1678.44,256.842 1679.4,257.818 1680.25,258.882C1680.71,259.469 1681.15,260.083 1681.55,260.718C1684.2,264.947 1685.28,270.08 1684.83,275.034C1684.74,276.087 1684.57,277.134 1684.33,278.166C1683.58,281.46 1682.1,284.598 1679.93,287.194C1679.16,288.107 1678.31,288.95 1677.39,289.707C1676.06,290.802 1674.58,291.712 1673,292.411C1671.28,293.175 1669.45,293.684 1667.59,293.956C1666.5,294.116 1665.39,294.192 1664.29,294.202L1664.14,294.202L1650.05,294.202L1650.05,315.482C1646.96,315.482 1643.86,315.482 1640.77,315.482Z" style="fill:white;fill-rule:nonzero;stroke-width:3.45px;stroke:white;"/>
        </g>
    </g>
    <g transform="matrix(0.222222,1.61049e-32,1.77154e-32,0.222222,-89.3741,-64.127)">
        <path d="M502.184,638.571C502.184,638.571 502.184,688.571 502.184,688.571C502.184,716.167 479.779,738.571 452.184,738.571C424.588,738.571 402.184,716.167 402.184,688.571L402.184,638.571C402.184,638.571 402.184,638.571 402.184,638.571L402.184,588.571L402.184,488.571C402.184,378.188 491.801,288.571 602.184,288.571C712.567,288.571 802.184,378.188 802.184,488.571C802.184,575.213 746.971,649.061 669.841,676.819C664.349,678.895 658.398,680.031 652.184,680.031C624.588,680.031 602.184,657.627 602.184,630.031C602.184,608.387 615.966,589.937 635.225,582.985C635.282,582.958 635.341,582.934 635.401,582.913C674.285,569.205 702.184,532.121 702.184,488.571C702.184,433.38 657.375,388.571 602.184,388.571C546.992,388.571 502.184,433.379 502.184,488.571L502.184,638.571Z" style="fill:white;"/>
    </g>
</svg>
